# xmcd
#
# Track frame offsets: 
#        150
#        17557
#        42225
#        66852
#
# Disc length: 1379 seconds
#
# Revision: 0
# Processed by: cddbd v1.5.2PL0 Copyright (c) Steve Scherf et al.
# Submitted via: ExactAudioCopy v0.95a5
#
DISCID=2b056104
DTITLE=Public Announcement - Body Bumpin' (Single)
DYEAR=1998
DGENRE=Soul
TTITLE0=Body Bumpin' (Yippie_Yi_Yo) (Radio Edit)
TTITLE1=Y To The Yippie (Step On)
TTITLE2=Body Bumpin' (Yippie_Yi_Yo) (R&B Remix)
TTITLE3=Body Bumpin' (Yippie_Yi_Yo) (Deep Soul Bump Mix)
EXTD=
EXTT0=
EXTT1=
EXTT2=
EXTT3=
PLAYORDER=
